<svg width="27" height="30" viewBox="0 0 27 30" fill="none" xmlns="http://www.w3.org/2000/svg">
<g id="Frame" clip-path="url(#clip0_523_1631)">
<path id="Vector" d="M25.9158 23.3791C25.4406 24.4272 24.878 25.392 24.2262 26.279C23.3378 27.4882 22.6104 28.3253 22.0498 28.7901C21.1807 29.553 20.2496 29.9437 19.2526 29.9659C18.5368 29.9659 17.6736 29.7715 16.6688 29.3771C15.6606 28.9845 14.7342 28.7901 13.8871 28.7901C12.9986 28.7901 12.0458 28.9845 11.0266 29.3771C10.0059 29.7715 9.18362 29.9771 8.55493 29.9974C7.5988 30.0363 6.64577 29.6345 5.69449 28.7901C5.08733 28.2845 4.3279 27.4179 3.41813 26.1901C2.44202 24.8791 1.63952 23.3587 1.01083 21.6255C0.337526 19.7533 0 17.9404 0 16.1853C0 14.1748 0.455078 12.4407 1.36659 10.9876C2.08296 9.82044 3.03599 8.89973 4.22878 8.22383C5.42156 7.54792 6.71037 7.20349 8.0983 7.18145C8.85774 7.18145 9.85363 7.4057 11.0912 7.84643C12.3253 8.28864 13.1177 8.51289 13.4652 8.51289C13.7249 8.51289 14.6052 8.25068 16.0975 7.72792C17.5087 7.24312 18.6997 7.04238 19.6754 7.12145C22.3194 7.32515 24.3058 8.32012 25.6268 10.1127C23.2622 11.4804 22.0924 13.3961 22.1157 15.8536C22.1371 17.7678 22.8645 19.3607 24.2941 20.6255C24.942 21.2125 25.6656 21.6662 26.4706 21.9884C26.296 22.4717 26.1117 22.9347 25.9158 23.3791ZM19.852 0.600171C19.852 2.10051 19.2778 3.50138 18.1333 4.798C16.7522 6.33944 15.0816 7.23015 13.27 7.0896C13.2469 6.90961 13.2336 6.72017 13.2336 6.5211C13.2336 5.08077 13.8904 3.53934 15.0568 2.27901C15.6391 1.64088 16.3797 1.11028 17.2779 0.687019C18.174 0.270069 19.0217 0.0394863 19.819 0C19.8423 0.200572 19.852 0.401177 19.852 0.600171Z" fill="white"/>
</g>
<defs>
<clipPath id="clip0_523_1631">
<rect width="26.4706" height="30" fill="white"/>
</clipPath>
</defs>
</svg>
