<svg width="25" height="25" viewBox="0 0 25 25" fill="none" xmlns="http://www.w3.org/2000/svg">
<g id="Clip path group">
<mask id="mask0_507_667" style="mask-type:luminance" maskUnits="userSpaceOnUse" x="0" y="0" width="25" height="25">
<g id="clip0_710_6221">
<path id="Vector" d="M25 0H0V25H25V0Z" fill="white"/>
</g>
</mask>
<g mask="url(#mask0_507_667)">
<g id="Group">
<path id="Vector_2" d="M24.4999 12.7844C24.4999 11.898 24.4204 11.0458 24.2726 10.2275H12.4999V15.0628H19.2271C18.9374 16.6253 18.0568 17.9492 16.7329 18.8355V21.9719H20.7726C23.1363 19.7958 24.4999 16.5912 24.4999 12.7844Z" fill="#4285F4"/>
<path id="Vector_3" d="M12.4998 25C15.8748 25 18.7043 23.8806 20.7725 21.9716L16.7327 18.8352C15.6135 19.5852 14.1816 20.0284 12.4998 20.0284C9.2441 20.0284 6.48847 17.8295 5.50547 14.875H1.32935V18.1136C3.38622 22.1989 7.61347 25 12.4998 25Z" fill="#34A853"/>
<path id="Vector_4" d="M5.50563 14.8751C5.25563 14.1251 5.11363 13.324 5.11363 12.5001C5.11363 11.6762 5.25563 10.8751 5.50563 10.1251V6.88647H1.3295C0.482999 8.57397 0 10.4831 0 12.5001C0 14.5171 0.482999 16.4262 1.3295 18.1137L5.50563 14.8751Z" fill="#FBBC04"/>
<path id="Vector_5" d="M12.4998 4.97162C14.335 4.97162 15.9827 5.60225 17.2782 6.84088L20.8635 3.25562C18.6987 1.23862 15.8691 0 12.4998 0C7.61347 0 3.38622 2.80113 1.32935 6.88637L5.50547 10.125C6.48847 7.1705 9.2441 4.97162 12.4998 4.97162Z" fill="#E94235"/>
</g>
</g>
</g>
</svg>
