<svg width="24" height="24" viewBox="0 0 24 24" fill="none" xmlns="http://www.w3.org/2000/svg">
<g id="Frame">
<g id="SVGRepo_iconCarrier">
<path id="Vector" fill-rule="evenodd" clip-rule="evenodd" d="M12.375 14.8901C11.1915 14.8901 10.2321 13.9061 10.2321 12.6923C10.2321 11.4785 11.1915 10.4945 12.375 10.4945C13.5584 10.4945 14.5178 11.4785 14.5178 12.6923C14.5178 13.2752 14.292 13.8342 13.8903 14.2464C13.4884 14.6586 12.9433 14.8901 12.375 14.8901Z" stroke="#4F4F4F" stroke-width="1.5" stroke-linecap="round" stroke-linejoin="round"/>
<path id="Vector_2" fill-rule="evenodd" clip-rule="evenodd" d="M18.0718 17.1571V15.6824C18.0718 15.3172 18.2132 14.967 18.465 14.7088L19.4818 13.6659C20.0061 13.1282 20.0061 12.2564 19.4818 11.7187L18.465 10.6758C18.2132 10.4176 18.0718 10.0674 18.0718 9.70218V8.22636C18.0718 7.46591 17.4707 6.84944 16.7293 6.84944H15.2904C14.9343 6.84944 14.5928 6.70436 14.341 6.44614L13.3242 5.40329C12.7999 4.86557 11.9499 4.86557 11.4256 5.40329L10.4089 6.44614C10.1571 6.70436 9.81567 6.84944 9.45963 6.84944H8.02069C7.66445 6.84944 7.32283 6.99466 7.07103 7.25312C6.81922 7.51158 6.67792 7.86208 6.6782 8.22746V9.70218C6.67819 10.0674 6.53675 10.4176 6.28498 10.6758L5.26821 11.7187C4.74393 12.2564 4.74393 13.1282 5.26821 13.6659L6.28498 14.7088C6.53675 14.967 6.67819 15.3172 6.6782 15.6824V17.1571C6.6782 17.9176 7.27926 18.534 8.02069 18.534H9.45963C9.81567 18.534 10.1571 18.6791 10.4089 18.9373L11.4256 19.9802C11.9499 20.5179 12.7999 20.5179 13.3242 19.9802L14.341 18.9373C14.5928 18.6791 14.9343 18.534 15.2904 18.534H16.7282C17.0844 18.5344 17.4262 18.3894 17.6782 18.1311C17.9301 17.8728 18.0718 17.5225 18.0718 17.1571Z" stroke="#4F4F4F" stroke-width="1.5" stroke-linecap="round" stroke-linejoin="round"/>
</g>
</g>
</svg>
